<?xml version="1.0" encoding="UTF-8" standalone="no"?>
<!-- Created with Inkscape (http://www.inkscape.org/) -->

<svg
        xmlns:dc="http://purl.org/dc/elements/1.1/"
        xmlns:cc="http://creativecommons.org/ns#"
        xmlns:rdf="http://www.w3.org/1999/02/22-rdf-syntax-ns#"
        xmlns="http://www.w3.org/2000/svg"
        xmlns:sodipodi="http://sodipodi.sourceforge.net/DTD/sodipodi-0.dtd"
        xmlns:inkscape="http://www.inkscape.org/namespaces/inkscape"
        id="svg17624"
        version="1.1"
        inkscape:version="0.92.2 5c3e80d, 2017-08-06"
        width="360.62711"
        height="360.61145"
        xml:space="preserve"
        sodipodi:docname="traffic_merge.svg"
        viewBox="0 0 721.25421 721.2229"><metadata
     id="metadata17630"><rdf:RDF><cc:Work
         rdf:about=""><dc:format>image/svg+xml</dc:format><dc:type
           rdf:resource="http://purl.org/dc/dcmitype/StillImage" /><dc:title></dc:title></cc:Work></rdf:RDF></metadata><defs
     id="defs17628"><inkscape:perspective
       sodipodi:type="inkscape:persp3d"
       inkscape:vp_x="0 : 1 : 1"
       inkscape:vp_y="0 : 2000 : 0"
       inkscape:vp_z="2 : 1 : 1"
       inkscape:persp3d-origin="1 : 0.66666666 : 1"
       id="perspective17632" /><clipPath
       clipPathUnits="userSpaceOnUse"
       id="clipPath17642"><path
         d="M -2,710 H 499 V -1 H -2 Z"
         id="path17644"
         inkscape:connector-curvature="0" /></clipPath><clipPath
       clipPathUnits="userSpaceOnUse"
       id="clipPath17648"><path
         d="M 0,708.06 H 498 V 0.06 H 0 Z"
         id="path17650"
         inkscape:connector-curvature="0" /></clipPath><clipPath
       clipPathUnits="userSpaceOnUse"
       id="clipPath17798"><path
         d="M -2,710 H 499 V -1 H -2 Z"
         id="path17800"
         inkscape:connector-curvature="0" /></clipPath><clipPath
       clipPathUnits="userSpaceOnUse"
       id="clipPath17804"><path
         d="M 0,708.06 H 498 V 0.06 H 0 Z"
         id="path17806"
         inkscape:connector-curvature="0" /></clipPath><clipPath
       id="Clip0"><path
         inkscape:connector-curvature="0"
         d="M 0,0 H 212.597 V 269.292 H 0 Z"
         transform="translate(0.923828,0.879883)"
         id="path7" /></clipPath><clipPath
       id="Clip0-8"><path
         inkscape:connector-curvature="0"
         d="M 0,0 H 170.079 V 113.386 H 0 Z"
         transform="translate(0.0986328,0.822266)"
         id="path7-8" /></clipPath><clipPath
       id="Clip0-1"><path
         inkscape:connector-curvature="0"
         d="M 0,0 H 287.009 V 159.449 H 0 Z"
         transform="translate(0.396484,0.267578)"
         id="path7-7" /></clipPath><clipPath
       id="Clip0-9"><path
         inkscape:connector-curvature="0"
         d="M 0,0 H 170.079 V 170.079 H 0 Z"
         transform="translate(0.460938,0.775391)"
         id="path7-4" /></clipPath><clipPath
       id="Clip0-4"><path
         inkscape:connector-curvature="0"
         d="M 0,0 H 340.157 V 226.771 H 0 Z"
         transform="translate(0.921875,0.25293)"
         id="path7-5" /></clipPath><clipPath
       id="Clip0-5"><path
         inkscape:connector-curvature="0"
         d="M 0,0 H 255.119 V 170.079 H 0 Z"
         transform="translate(0.147461,0.0595703)"
         id="path7-1" /></clipPath><clipPath
       id="Clip0-0"><path
         inkscape:connector-curvature="0"
         d="M 0,0 H 170.079 V 113.386 H 0 Z"
         transform="translate(0.0673828,0.207031)"
         id="path7-9" /></clipPath></defs><sodipodi:namedview
     pagecolor="#ffffff"
     bordercolor="#666666"
     borderopacity="1"
     objecttolerance="10"
     gridtolerance="10"
     guidetolerance="10"
     inkscape:pageopacity="0"
     inkscape:pageshadow="2"
     inkscape:window-width="1920"
     inkscape:window-height="1058"
     id="namedview17626"
     showgrid="false"
     inkscape:zoom="1.4142136"
     inkscape:cx="175.85569"
     inkscape:cy="87.764629"
     inkscape:window-x="0"
     inkscape:window-y="0"
     inkscape:window-maximized="1"
     inkscape:current-layer="g17634"
     fit-margin-top="0"
     fit-margin-left="0"
     fit-margin-right="0"
     fit-margin-bottom="0"
     showguides="true"
     inkscape:guide-bbox="true" /><g
     id="g17634"
     inkscape:groupmode="layer"
     inkscape:label="GG1999P002"
     transform="matrix(1.25,0,0,-1.25,2887.3377,-1110.5697)"><path
       inkscape:connector-curvature="0"
       style="fill:#ffdb00;fill-rule:nonzero;stroke:none"
       d="m -1883.1154,-1156.9515 c 5.733,-5.734 5.733,-15.03 -8e-4,-20.763 l -129.572,-129.563 c -5.733,-5.734 -15.03,-5.734 -20.763,0 l -129.5658,129.563 c -5.7344,5.733 -5.7334,15.029 0,20.763 l 129.5706,129.5626 c 5.735,5.7334 15.031,5.7334 20.765,0 z"
       id="path11" /><path
       inkscape:connector-curvature="0"
       style="fill:#000000;fill-rule:nonzero;stroke:none"
       d="m -2160.77,-1174.9602 c -4.0967,4.096 -4.0967,10.736 0,14.832 l 130.2843,130.2822 c 4.097,4.0967 10.738,4.0967 14.833,0 l 130.29,-130.2822 c 4.095,-4.096 4.095,-10.736 0,-14.832 l -130.287,-130.284 c -4.095,-4.095 -10.736,-4.095 -14.832,0 z"
       id="path13" /><path
       inkscape:connector-curvature="0"
       style="fill:#ffdb00;fill-rule:nonzero;stroke:none"
       d="m -2156.9615,-1170.9912 c -1.9932,1.993 -1.9932,5.224 0,7.216 l 130.2858,130.2828 c 1.993,1.9921 5.224,1.9921 7.216,0 l 130.289,-130.2828 c 1.993,-1.992 1.993,-5.223 0,-7.216 l -130.286,-130.283 c -1.992,-1.992 -5.223,-1.992 -7.216,0 l -130.2878,130.283 z"
       id="path15" /><path
       inkscape:connector-curvature="0"
       style="fill:#000000;fill-rule:nonzero;stroke:none"
       d="m -2006.9753,-1115.5286 c -0.051,-1.4531 -0.076,-2.913 -0.076,-4.3789 0,-18.8552 4.204,-36.7303 11.725,-52.7363 l 25.5114,-44.192 -27.7404,-16.016 -25.512,44.187 -25.511,-44.187 -27.7406,16.016 25.5116,44.187 c 7.522,16.007 11.725,33.8861 11.725,52.7413 0,1.4659 -0.026,2.9258 -0.075,4.3789 l -15.145,-6.0087 c -3.274,-1.3554 -7.027,0.1982 -8.384,3.4726 -0.851,2.0566 -0.557,4.2979 0.593,6.0205 l 39.027,60.6094 39.027,-60.6094 c 1.15,-1.7226 1.444,-3.9639 0.593,-6.0205 -1.357,-3.2744 -5.11,-4.828 -8.384,-3.4726 z"
       id="path17" /></g></svg>